<!DOCTYPE svg PUBLIC "-//W3C//DTD SVG 1.1//EN" "http://www.w3.org/Graphics/SVG/1.1/DTD/svg11.dtd">
<!-- Uploaded to: SVG Repo, www.svgrepo.com, Transformed by: SVG Repo Mixer Tools -->
<svg width="800px" height="800px" viewBox="0 0 48 48" xmlns="http://www.w3.org/2000/svg" fill="#000000">
<g id="SVGRepo_bgCarrier" stroke-width="0"/>
<g id="SVGRepo_tracerCarrier" stroke-linecap="round" stroke-linejoin="round"/>
<g id="SVGRepo_iconCarrier">
<title>medical</title>
<path d="M31,46H17a3,3,0,0,1-3-3V34H5a3,3,0,0,1-3-3V17a3,3,0,0,1,3-3h9V5a3,3,0,0,1,3-3H31a3,3,0,0,1,3,3v9h9a3,3,0,0,1,3,3V31a3,3,0,0,1-3,3H34v9A3,3,0,0,1,31,46ZM18,42H30V30H42V18H30V6H18V18H6V30H18V42Z" fill="#2161ff"/>
<rect width="48" height="48" fill="none"/>
</g>
</svg>